<svg width="300" height="400" viewBox="0 0 300 400" fill="none" xmlns="http://www.w3.org/2000/svg">
  <rect width="300" height="400" fill="#E5E7EB"/>
  <path d="M150 180C167.673 180 182 165.673 182 148C182 130.327 167.673 116 150 116C132.327 116 118 130.327 118 148C118 165.673 132.327 180 150 180Z" fill="#9CA3AF"/>
  <path d="M150 200C117.909 200 92 225.909 92 258V284H208V258C208 225.909 182.091 200 150 200Z" fill="#9CA3AF"/>
  <path d="M150 80C150 77.2386 152.239 75 155 75H245C247.761 75 250 77.2386 250 80V100C250 102.761 247.761 105 245 105H155C152.239 105 150 102.761 150 100V80Z" fill="#9CA3AF"/>
  <path d="M150 220C150 217.239 152.239 215 155 215H245C247.761 215 250 217.239 250 220V240C250 242.761 247.761 245 245 245H155C152.239 245 150 242.761 150 240V220Z" fill="#9CA3AF"/>
  <path d="M150 260C150 257.239 152.239 255 155 255H245C247.761 255 250 257.239 250 260V280C250 282.761 247.761 285 245 285H155C152.239 285 150 282.761 150 280V260Z" fill="#9CA3AF"/>
  <path d="M150 300C150 297.239 152.239 295 155 295H245C247.761 295 250 297.239 250 300V320C250 322.761 247.761 325 245 325H155C152.239 325 150 322.761 150 320V300Z" fill="#9CA3AF"/>
</svg>